<?xml version="1.0" encoding="UTF-8"?><!DOCTYPE svg PUBLIC "-//W3C//DTD SVG 1.1//EN" "http://www.w3.org/Graphics/SVG/1.1/DTD/svg11.dtd"><svg xmlns="http://www.w3.org/2000/svg" xmlns:xlink="http://www.w3.org/1999/xlink" version="1.1" width="24" height="24" viewBox="0 0 24 24"><path d="M11,19V9C11,7.9 10.1,7 9,7H5V17H9C10.1,17 11,17.9 11,19M13,9V19C13,17.9 13.9,17 15,17H19V7H15C13.9,7 13,7.9 13,9M21,19H15C13.9,19 13,19.9 13,21H11C11,19.9 10.1,19 9,19H3V5H9C10.1,5 11,5.9 11,7H13C13,5.9 13.9,5 15,5H21V19Z" /></svg>