<?xml version="1.0" encoding="iso-8859-1"?>
<!-- Generator: Adobe Illustrator 19.0.0, SVG Export Plug-In . SVG Version: 6.00 Build 0)  -->
<svg version="1.1" id="Capa_1" xmlns="http://www.w3.org/2000/svg" xmlns:xlink="http://www.w3.org/1999/xlink" x="0px" y="0px"
	 viewBox="0 0 105 105" style="enable-background:new 0 0 105 105;" xml:space="preserve">
<g id="chart1_1_">
	<g>
		<path style="fill-rule:evenodd;clip-rule:evenodd;" d="M11.436,57.126c1.566,0.957,3.045,1.444,4.692,1.173
			c0.4-0.064,0.589-0.443,0.88-0.586c0.397-0.193,0.83-0.049,1.175-0.292c0.281-0.202,0.576-0.824,0.88-1.174
			c1.149-1.321,1.913-2.536,2.051-4.4c3.508,0.551,9.116,0.724,10.559-1.759c0.732,1.321,2.082,2.023,3.812,2.347
			c3.249,0.212,4.923-1.144,6.162-2.935c0.661-2.916-0.339-5.386-1.469-7.332c1.024-1.324,2.349-2.344,3.228-3.812
			c1.299-1.049,1.855-2.836,3.227-3.813c1.949,1.284,4.688,0.06,6.451-0.588c0.717,1.239,1.559,2.354,2.348,3.52
			c0.612,0.364,1.104,0.853,1.464,1.468c0.185,0.794,1.229,0.729,1.177,1.759c-0.114,3.437,0.632,6.015,2.052,7.919
			c2.147,1.167,4.753,0.774,6.746-0.294c0.45-0.818,0.888-1.654,1.466-2.344c0.088-1.851-0.046-3.475-0.293-4.988
			c3.767-4.053,7.269-8.372,12.025-11.438c0.401,0.967,1.552,1.186,2.641,1.467c4.23,0.222,6.435-1.581,7.916-4.106
			c0.471-4.151-0.316-8.105-3.225-9.68c-2.261,0.077-3.439-0.426-5.575,0c-2.148,1.275-3.707,3.135-4.983,5.28v2.932
			c-2.018,1.795-4.03,3.596-6.16,5.28c-1.83,2.179-3.604,4.41-5.573,6.453c-0.68-0.721-2.314-0.935-3.226-0.587
			c-0.254-0.725-1.086-0.868-1.464-1.468c-0.304-0.771-1.165-0.986-1.468-1.758c-1.188-0.868-2.17-1.939-2.933-3.227
			c0.78-2.208,0.246-5.485-1.176-6.452c-1.027-0.55-2.483-0.122-3.81-0.293c-0.847-0.109-1.559-0.657-2.346-0.586
			c-1.441,0.419-2.561,1.157-3.522,2.052c-0.411,1.739-0.947,3.355-0.878,5.572c-1.221,1.341-2.158,2.881-3.229,4.4
			c-1.039,1.479-2.025,3.048-3.227,4.399c-0.839-0.918-1.934-1.587-3.812-1.466c-3.657,0.674-5.361,4.431-4.397,8.8
			c-2.89,0.239-6.152,0.104-8.801,0.584c-0.599-1.159-1.181-2.334-2.638-2.638c-3.728-0.207-5.239,1.804-7.624,2.933
			c-0.673,1.612-1.43,3.443-1.179,5.573C9.585,54.72,10.708,56.129,11.436,57.126z M82.709,22.225
			c0.939-0.431,1.628-1.109,3.227-0.881c0.472,1.213,0.928,3.257,0.292,4.693c-0.999,0.272-1.722,0.822-3.228,0.586
			C82.676,25.385,82.661,23.832,82.709,22.225z M63.058,42.168c0.677,0.298,0.607,1.348,0.586,2.346
			C62.967,44.214,63.035,43.166,63.058,42.168z M51.618,28.091c-0.224,0.948-0.812,1.534-1.761,1.759
			C49.701,28.521,50.29,27.935,51.618,28.091z M34.607,43.049c0.709,0.854,1.526,1.601,1.76,2.934c0.353-0.031,0.18,0.426,0,0
			c-0.396-0.094-0.561-0.418-1.176-0.295C34.878,44.928,34.481,44.248,34.607,43.049z M15.252,49.793
			c1.222,0.088,0.516,2.694,0,2.933C14.182,52.485,14.632,50.135,15.252,49.793z M102.945,42.462
			c-5.26-2.02-9.509,1.483-8.798,7.331c-4.643,4.942-10.25,8.915-15.548,13.2c-0.596-0.675-2.433-0.108-3.516-0.293
			c-0.06,0.435-0.712,0.267-1.178,0.293c-0.486,0.488-1.412,0.542-1.758,1.173c-0.847,0.131-0.915,1.038-2.051,0.878
			c-4.888-0.785-9.291-2.05-12.909-4.105c-0.378-1.867-1-3.495-2.052-4.692c-0.729-0.149-1.203-0.555-1.758-0.88h-4.106
			c-0.813,0.46-1.63,0.913-2.64,1.173c-0.364,0.614-0.854,1.103-1.468,1.468c-0.376,0.697-0.753,1.398-1.173,2.053
			c-0.066,1.532,0.004,2.929,0.295,4.106c-4.16,2.781-7.896,5.988-11.44,9.386c-0.628,0.643-0.806,1.734-1.466,2.345
			c-1.867-1.045-5.415-0.633-7.038,0.293c-2.029-1.294-4.146-2.502-6.159-3.812c-1.779-1.548-3.793-2.856-5.574-4.399
			c0.221-2.468-0.341-4.155-0.88-5.866c-0.489-0.078-0.958-0.843-1.466-1.174c-0.034-0.022-0.655-0.312-0.586-0.293
			c-3.288-0.939-7.753,0.908-9.093,2.64C0.558,64.336,0.128,64.98,0,65.925c0.054,1.607,0.542,2.782,0.879,4.106
			c0.723,1.035,0.764,2.756,1.759,3.521c0.227,0.065,0.577,0.006,0.587,0.292c3.238,0.206,5.013-1.048,7.334-1.76
			c1.192,0.566,1.496,2.022,2.932,2.346c0.728,1.03,1.674,1.844,2.93,2.346c1.804,1.717,4.629,2.413,6.455,4.106
			c-0.187,2.435,0.309,4.191,1.172,5.572c2.441,2.228,9.469,2.103,10.268-1.465c0.014-0.18,0.042-0.346,0.291-0.293
			c-0.052-1.514,0.181-3.31-0.291-4.399c0.719-0.646,1.284-1.452,2.346-1.761c0.549-0.772-0.77-0.988,0.293-1.76
			c0.957-0.505,1.383-1.547,2.348-2.052c1.016-0.547,1.358-1.77,2.638-2.054c0.45-1.112,1.893-1.231,2.347-2.344
			c1.315-0.247,1.615-1.514,2.932-1.762c1.249,0.023,2.054,0.491,3.519,0.294c0.652-0.228,1.145-0.617,2.054-0.586
			c0.319-0.659,1.44-0.517,1.759-1.174c0.798-0.182,0.731-1.225,1.763-1.173c3.819,2.338,9,3.319,13.785,4.693
			c0.791,0.479,1.394,1.146,1.758,2.052c0.346,0.927,1.522,1.021,2.051,1.76c5.684,0.598,8.354-1.817,7.628-7.624
			c0.991-1.16,2.604-1.697,3.52-2.935c1.665-0.485,2.267-2.034,3.811-2.638c1.02-1.134,2.231-2.072,3.52-2.935
			c0.351-0.725,1.005-1.146,1.763-1.466c0.487-0.588,0.785-1.363,1.759-1.467c0.817,0.648,1.592,1.343,3.227,1.173
			c1.934-0.215,3.181-1.119,4.399-2.052C105.74,51.723,105.386,44.706,102.945,42.462z M28.74,82.642
			c-0.656-0.126-0.116-1.445-0.293-2.052h0.88C29.519,81.659,29.128,82.151,28.74,82.642z M75.96,67.978
			c-0.472,0.082-0.504-0.278-0.876-0.294c-0.093-0.355,0.846-1.011,0.876-0.294V67.978z M99.717,47.741
			c0.4,0.09,0.244,0.735,0.293,1.174C99.333,48.831,99.34,48.131,99.717,47.741z"/>
	</g>
</g>
<g>
</g>
<g>
</g>
<g>
</g>
<g>
</g>
<g>
</g>
<g>
</g>
<g>
</g>
<g>
</g>
<g>
</g>
<g>
</g>
<g>
</g>
<g>
</g>
<g>
</g>
<g>
</g>
<g>
</g>
</svg>
